<svg xmlns="http://www.w3.org/2000/svg" width="18.915" height="18.863" viewBox="0 0 18.915 18.863"><defs><style>.a{fill:#8ab26d;}</style></defs><g transform="translate(-836.351 184.615)"><path class="a" d="M847.683-168.606h-9.41v-4.689h8.962a1.515,1.515,0,0,1,.309.007.231.231,0,0,1,.157.123.947.947,0,0,0,1.028.8H854.2a.944.944,0,0,0,1.06-1.043c0-.552,0-1.1,0-1.657a.958.958,0,0,0-1.079-1.073l-3.609,0c-.627,0-1.255,0-1.882,0a.942.942,0,0,0-.955.675c-.024.083-.035.17-.052.254h-9.41V-179.9h.741q4.24,0,8.479,0c.142,0,.2.032.228.187a.915.915,0,0,0,.907.759q2.845.011,5.69,0a.907.907,0,0,0,.929-.882c.023-.669.023-1.341,0-2.01a.907.907,0,0,0-.922-.888q-2.845-.013-5.69,0a.91.91,0,0,0-.9.71c-.036.206-.117.238-.3.238q-4.461-.007-8.922,0c-.078,0-.157-.007-.256-.012,0-.108,0-.195,0-.281,0-.56.013-1.12-.013-1.679a.9.9,0,0,0-.8-.841.938.938,0,0,0-1.083,1.009c-.005,1.068,0,2.136,0,3.2,0,4.206.006,8.412-.006,12.619a1.031,1.031,0,0,0,1.084,1.082c3.328-.02,6.657-.011,9.985-.011h.251c.179.742.453.949,1.206.948,1.041,0,2.081,0,3.122,0,.753,0,1.506,0,2.258,0a.917.917,0,0,0,.991-.909q.033-.971,0-1.944a.919.919,0,0,0-.981-.919q-2.812,0-5.624,0a.921.921,0,0,0-.261.032A.959.959,0,0,0,847.683-168.606Z" transform="translate(0 0)"/><path class="a" d="M847.683-168.606a.959.959,0,0,1,.7-.892.921.921,0,0,1,.261-.032q2.812,0,5.624,0a.919.919,0,0,1,.981.919q.029.971,0,1.944a.917.917,0,0,1-.991.909c-.753.009-1.505,0-2.258,0-1.041,0-2.081,0-3.122,0-.753,0-1.027-.206-1.206-.948h-.251c-3.328,0-6.657-.008-9.985.011a1.031,1.031,0,0,1-1.084-1.082c.012-4.206.006-8.412.006-12.619,0-1.068,0-2.136,0-3.2a.938.938,0,0,1,1.083-1.009.9.9,0,0,1,.8.841c.026.559.011,1.119.013,1.679,0,.087,0,.174,0,.281.1,0,.178.012.256.012q4.461,0,8.922,0c.182,0,.262-.032.3-.238a.91.91,0,0,1,.9-.71q2.845-.009,5.69,0a.907.907,0,0,1,.922.888c.022.669.023,1.341,0,2.01a.907.907,0,0,1-.929.882q-2.845.012-5.69,0a.915.915,0,0,1-.907-.759c-.026-.155-.086-.187-.228-.187q-4.24.006-8.479,0h-.741v4.693h9.41c.017-.085.028-.172.052-.254a.942.942,0,0,1,.955-.675c.627-.008,1.255,0,1.882,0l3.609,0a.958.958,0,0,1,1.079,1.073c0,.552,0,1.1,0,1.657a.944.944,0,0,1-1.06,1.043h-5.469a.947.947,0,0,1-1.028-.8.231.231,0,0,0-.157-.123,1.515,1.515,0,0,0-.309-.007h-8.962v4.689Z" transform="translate(0 0)"/></g></svg>