<svg xmlns="http://www.w3.org/2000/svg" width="268" height="268" viewBox="0 0 268 268"><defs><style>.a{opacity:0.2;}.b{opacity:0.502;}.c{fill:#1c7609;}</style></defs><g class="a" transform="translate(-192 -2882)"><g class="b" transform="translate(-418 1528)"><circle class="c" cx="6" cy="6" r="6" transform="translate(610 1354)"/><circle class="c" cx="6" cy="6" r="6" transform="translate(642 1354)"/><circle class="c" cx="6" cy="6" r="6" transform="translate(674 1354)"/><circle class="c" cx="6" cy="6" r="6" transform="translate(706 1354)"/><circle class="c" cx="6" cy="6" r="6" transform="translate(738 1354)"/><circle class="c" cx="6" cy="6" r="6" transform="translate(770 1354)"/><circle class="c" cx="6" cy="6" r="6" transform="translate(802 1354)"/><circle class="c" cx="6" cy="6" r="6" transform="translate(834 1354)"/><circle class="c" cx="6" cy="6" r="6" transform="translate(866 1354)"/><circle class="c" cx="6" cy="6" r="6" transform="translate(610 1386)"/><circle class="c" cx="6" cy="6" r="6" transform="translate(642 1386)"/><circle class="c" cx="6" cy="6" r="6" transform="translate(674 1386)"/><circle class="c" cx="6" cy="6" r="6" transform="translate(706 1386)"/><circle class="c" cx="6" cy="6" r="6" transform="translate(738 1386)"/><circle class="c" cx="6" cy="6" r="6" transform="translate(770 1386)"/><circle class="c" cx="6" cy="6" r="6" transform="translate(802 1386)"/><circle class="c" cx="6" cy="6" r="6" transform="translate(834 1386)"/><circle class="c" cx="6" cy="6" r="6" transform="translate(866 1386)"/><circle class="c" cx="6" cy="6" r="6" transform="translate(610 1418)"/><circle class="c" cx="6" cy="6" r="6" transform="translate(642 1418)"/><circle class="c" cx="6" cy="6" r="6" transform="translate(674 1418)"/><circle class="c" cx="6" cy="6" r="6" transform="translate(706 1418)"/><circle class="c" cx="6" cy="6" r="6" transform="translate(738 1418)"/><circle class="c" cx="6" cy="6" r="6" transform="translate(770 1418)"/><circle class="c" cx="6" cy="6" r="6" transform="translate(802 1418)"/><circle class="c" cx="6" cy="6" r="6" transform="translate(834 1418)"/><circle class="c" cx="6" cy="6" r="6" transform="translate(866 1418)"/><circle class="c" cx="6" cy="6" r="6" transform="translate(610 1450)"/><circle class="c" cx="6" cy="6" r="6" transform="translate(642 1450)"/><circle class="c" cx="6" cy="6" r="6" transform="translate(674 1450)"/><circle class="c" cx="6" cy="6" r="6" transform="translate(706 1450)"/><circle class="c" cx="6" cy="6" r="6" transform="translate(738 1450)"/><circle class="c" cx="6" cy="6" r="6" transform="translate(770 1450)"/><circle class="c" cx="6" cy="6" r="6" transform="translate(802 1450)"/><circle class="c" cx="6" cy="6" r="6" transform="translate(834 1450)"/><circle class="c" cx="6" cy="6" r="6" transform="translate(866 1450)"/><circle class="c" cx="6" cy="6" r="6" transform="translate(610 1482)"/><circle class="c" cx="6" cy="6" r="6" transform="translate(642 1482)"/><circle class="c" cx="6" cy="6" r="6" transform="translate(674 1482)"/><circle class="c" cx="6" cy="6" r="6" transform="translate(706 1482)"/><circle class="c" cx="6" cy="6" r="6" transform="translate(738 1482)"/><circle class="c" cx="6" cy="6" r="6" transform="translate(770 1482)"/><circle class="c" cx="6" cy="6" r="6" transform="translate(802 1482)"/><circle class="c" cx="6" cy="6" r="6" transform="translate(834 1482)"/><circle class="c" cx="6" cy="6" r="6" transform="translate(866 1482)"/><circle class="c" cx="6" cy="6" r="6" transform="translate(610 1514)"/><circle class="c" cx="6" cy="6" r="6" transform="translate(642 1514)"/><circle class="c" cx="6" cy="6" r="6" transform="translate(674 1514)"/><circle class="c" cx="6" cy="6" r="6" transform="translate(706 1514)"/><circle class="c" cx="6" cy="6" r="6" transform="translate(738 1514)"/><circle class="c" cx="6" cy="6" r="6" transform="translate(770 1514)"/><circle class="c" cx="6" cy="6" r="6" transform="translate(802 1514)"/><circle class="c" cx="6" cy="6" r="6" transform="translate(834 1514)"/><circle class="c" cx="6" cy="6" r="6" transform="translate(866 1514)"/><circle class="c" cx="6" cy="6" r="6" transform="translate(610 1546)"/><circle class="c" cx="6" cy="6" r="6" transform="translate(642 1546)"/><circle class="c" cx="6" cy="6" r="6" transform="translate(674 1546)"/><circle class="c" cx="6" cy="6" r="6" transform="translate(706 1546)"/><circle class="c" cx="6" cy="6" r="6" transform="translate(738 1546)"/><circle class="c" cx="6" cy="6" r="6" transform="translate(770 1546)"/><circle class="c" cx="6" cy="6" r="6" transform="translate(802 1546)"/><circle class="c" cx="6" cy="6" r="6" transform="translate(834 1546)"/><circle class="c" cx="6" cy="6" r="6" transform="translate(866 1546)"/><circle class="c" cx="6" cy="6" r="6" transform="translate(610 1578)"/><circle class="c" cx="6" cy="6" r="6" transform="translate(642 1578)"/><circle class="c" cx="6" cy="6" r="6" transform="translate(674 1578)"/><circle class="c" cx="6" cy="6" r="6" transform="translate(706 1578)"/><circle class="c" cx="6" cy="6" r="6" transform="translate(738 1578)"/><circle class="c" cx="6" cy="6" r="6" transform="translate(770 1578)"/><circle class="c" cx="6" cy="6" r="6" transform="translate(802 1578)"/><circle class="c" cx="6" cy="6" r="6" transform="translate(834 1578)"/><circle class="c" cx="6" cy="6" r="6" transform="translate(866 1578)"/><circle class="c" cx="6" cy="6" r="6" transform="translate(610 1610)"/><circle class="c" cx="6" cy="6" r="6" transform="translate(642 1610)"/><circle class="c" cx="6" cy="6" r="6" transform="translate(674 1610)"/><circle class="c" cx="6" cy="6" r="6" transform="translate(706 1610)"/><circle class="c" cx="6" cy="6" r="6" transform="translate(738 1610)"/><circle class="c" cx="6" cy="6" r="6" transform="translate(770 1610)"/><circle class="c" cx="6" cy="6" r="6" transform="translate(802 1610)"/><circle class="c" cx="6" cy="6" r="6" transform="translate(834 1610)"/><circle class="c" cx="6" cy="6" r="6" transform="translate(866 1610)"/></g></g></svg>