<svg xmlns="http://www.w3.org/2000/svg" width="25.137" height="25.188" viewBox="0 0 25.137 25.188"><defs><style>.a{fill:#fff;}</style></defs><g transform="translate(-1000 -166)"><path class="a" d="M1011.784,166h1.571a1.776,1.776,0,0,0,.214.042,12.168,12.168,0,0,1,4.559,1.249A12.6,12.6,0,0,1,1014.735,191c-.458.077-.92.128-1.38.191h-1.571c-.055-.013-.109-.031-.164-.039-.573-.084-1.153-.139-1.72-.253a12.583,12.583,0,0,1-9.7-10.082c-.077-.475-.132-.955-.2-1.432v-1.574c.08-.558.14-1.119.244-1.673a12.58,12.58,0,0,1,10.135-9.94C1010.845,166.117,1011.315,166.064,1011.784,166Zm2.475,18-.312.077a5.449,5.449,0,0,1-2.551.044,5.67,5.67,0,0,1-3.805-2.855q-2.262-3.939-4.536-7.871c-.043-.075-.09-.148-.158-.259-.078.145-.142.256-.2.371a10.634,10.634,0,0,0-.808,8.04,10.864,10.864,0,0,0,8.969,8.03c.175.033.227-.043.3-.165q1.492-2.6,2.989-5.192C1014.179,184.162,1014.209,184.1,1014.259,184Zm7.855-11.066c-.05-.09-.076-.147-.111-.2a10.855,10.855,0,0,0-10.779-5.162,10.678,10.678,0,0,0-7.268,4,.28.28,0,0,0-.034.381q1.5,2.579,2.983,5.167c.04.069.085.136.143.229.054-.184.1-.339.146-.491a5.641,5.641,0,0,1,5.348-3.925c3.084-.009,6.168,0,9.252,0Zm-5.73,1.476c.065.071.086.1.108.119a5.594,5.594,0,0,1,.961,6.882c-1.5,2.667-3.049,5.307-4.576,7.959-.059.1-.114.206-.18.324a11.007,11.007,0,0,0,4.659-1.067,11.148,11.148,0,0,0,5.588-14,.292.292,0,0,0-.332-.226c-1.988.007-3.975,0-5.963,0Zm-3.824,8.363a4.181,4.181,0,1,0-4.165-4.184A4.186,4.186,0,0,0,1012.561,182.775Z"/></g></svg>