<svg xmlns="http://www.w3.org/2000/svg" xmlns:xlink="http://www.w3.org/1999/xlink" width="45.421" height="45.328" viewBox="0 0 45.421 45.328"><defs><style>.a{fill:#8ab26d;}.b{clip-path:url(#a);}</style><clipPath id="a"><rect class="a" width="45.421" height="45.328"/></clipPath></defs><g class="b"><path class="a" d="M44.861,19.938a9.1,9.1,0,0,0,.559-1.866,4.933,4.933,0,0,0-2.158-4.125A5.614,5.614,0,0,1,40.5,9.193a4.669,4.669,0,0,0-4.543-4.386,5.321,5.321,0,0,1-4.389-2.481A4.747,4.747,0,0,0,25.148.6a5.282,5.282,0,0,1-4.958,0,4.749,4.749,0,0,0-6.418,1.729A5.312,5.312,0,0,1,9.384,4.809,4.684,4.684,0,0,0,4.839,9.193a5.721,5.721,0,0,1-2.69,4.714,4.679,4.679,0,0,0-1.6,6.181,5.434,5.434,0,0,1,.018,5.12,5.123,5.123,0,0,0,2.087,6.616A3.953,3.953,0,0,1,4.735,34.9a11.839,11.839,0,0,0,.259,2.187A4.7,4.7,0,0,0,9.44,40.55a5.27,5.27,0,0,1,4.366,2.512,4.754,4.754,0,0,0,6.365,1.682,5.329,5.329,0,0,1,4.965-.011,4.775,4.775,0,0,0,6.428-1.711,5.143,5.143,0,0,1,4.3-2.464A4.68,4.68,0,0,0,40.192,37.5a8.24,8.24,0,0,0,.442-2.247,4.479,4.479,0,0,1,1.874-3.316A7.886,7.886,0,0,0,44.6,29.911a4.365,4.365,0,0,0,.242-4.558,5.333,5.333,0,0,1,.018-5.415M22.669,38.96a16.282,16.282,0,1,1,16.3-16.281,16.336,16.336,0,0,1-16.3,16.281M28.46,15.568q-3.538,3.513-7.052,7.053c-.4.407-.755.866-1.132,1.3l-.208-.139a.8.8,0,0,1-.139-.089c-1.013-1.006-2.019-2.022-3.037-3.024a2.907,2.907,0,1,0-4.116,4.084Q15.3,27.3,17.847,29.827a3.181,3.181,0,0,0,4.564-.01q5.077-5.065,10.14-10.143a2.906,2.906,0,1,0-4.091-4.106" transform="translate(0 0)"/><path class="a" d="M44.861,19.938a9.1,9.1,0,0,0,.559-1.866,4.932,4.932,0,0,0-2.158-4.125A5.615,5.615,0,0,1,40.5,9.193a4.669,4.669,0,0,0-4.542-4.386,5.321,5.321,0,0,1-4.39-2.481A4.747,4.747,0,0,0,25.148.6a5.282,5.282,0,0,1-4.958,0,4.749,4.749,0,0,0-6.418,1.729A5.312,5.312,0,0,1,9.384,4.809,4.683,4.683,0,0,0,4.839,9.193a5.721,5.721,0,0,1-2.691,4.714,4.679,4.679,0,0,0-1.6,6.181,5.433,5.433,0,0,1,.018,5.12,5.124,5.124,0,0,0,2.087,6.616A3.952,3.952,0,0,1,4.735,34.9a11.853,11.853,0,0,0,.259,2.187A4.7,4.7,0,0,0,9.44,40.55a5.27,5.27,0,0,1,4.366,2.512,4.754,4.754,0,0,0,6.365,1.682,5.329,5.329,0,0,1,4.965-.011,4.775,4.775,0,0,0,6.428-1.711,5.143,5.143,0,0,1,4.3-2.465A4.679,4.679,0,0,0,40.192,37.5a8.247,8.247,0,0,0,.442-2.247,4.479,4.479,0,0,1,1.874-3.316A7.88,7.88,0,0,0,44.6,29.911a4.365,4.365,0,0,0,.243-4.558,5.333,5.333,0,0,1,.018-5.415M22.669,38.96a16.282,16.282,0,1,1,16.3-16.281,16.336,16.336,0,0,1-16.3,16.281" transform="translate(0 0)"/><path class="a" d="M92.171,93.358q-5.06,5.08-10.14,10.143a3.181,3.181,0,0,1-4.564.01q-2.546-2.526-5.069-5.072a2.907,2.907,0,1,1,4.116-4.084c1.018,1,2.024,2.017,3.037,3.024a.8.8,0,0,0,.139.089l.208.139c.376-.434.727-.892,1.132-1.3q3.516-3.538,7.052-7.053a2.906,2.906,0,1,1,4.091,4.106" transform="translate(-59.62 -73.684)"/></g></svg>