<svg xmlns="http://www.w3.org/2000/svg" xmlns:xlink="http://www.w3.org/1999/xlink" width="48" height="47.623" viewBox="0 0 48 47.623"><defs><style>.a{fill:#fff;}.b{clip-path:url(#a);}</style><clipPath id="a"><rect class="a" width="48" height="47.623"/></clipPath></defs><g class="b"><path class="a" d="M47.376,7.376C45.926,3.267,42.849.99,38.69,0,37.443.013,36.247.028,35,.041c-4.11,1.076-7.1,3.4-8.5,7.492H14.982A8,8,0,1,0,4.709,18.725V32.358A7.991,7.991,0,1,0,15.434,42.611h8.059a7.988,7.988,0,1,0,.134-6.264H15.3a8.021,8.021,0,0,0-4.312-4.123V18.859a8.013,8.013,0,0,0,4.67-5.063H26.089a3.437,3.437,0,0,1,.612,1.124A11.006,11.006,0,0,0,47.376,7.376m-10.445,9.03a5.474,5.474,0,0,1-5.381-5.353,5.256,5.256,0,0,1,5.381-5.406,5.38,5.38,0,0,1,5.491,5.34,5.536,5.536,0,0,1-5.491,5.418"/></g></svg>