<svg xmlns="http://www.w3.org/2000/svg" width="29.028" height="29.028" viewBox="0 0 29.028 29.028"><defs><style>.a{fill:none;stroke:#8ab26d;stroke-linecap:round;stroke-linejoin:round;stroke-width:3px;}</style></defs><g transform="translate(-171.5 -721.5)"><g transform="translate(173 723)"><path class="a" d="M16.1,13.5H27.815a2.6,2.6,0,0,1,2.6,2.6V27.815a2.6,2.6,0,0,1-2.6,2.6H16.1a2.6,2.6,0,0,1-2.6-2.6V16.1A2.6,2.6,0,0,1,16.1,13.5Z" transform="translate(-4.39 -4.39)"/><path class="a" d="M6.9,19.918H5.6a2.6,2.6,0,0,1-2.6-2.6V5.6A2.6,2.6,0,0,1,5.6,3H17.315a2.6,2.6,0,0,1,2.6,2.6V6.9" transform="translate(-3 -3)"/></g></g></svg>