<svg xmlns="http://www.w3.org/2000/svg" width="55.691" height="55.693" viewBox="0 0 55.691 55.693"><defs><style>.a{fill:#fff;}</style></defs><g transform="translate(-0.002 0.001)"><path class="a" d="M19124.43-2723.466,19100.6-2747.3a8.81,8.81,0,0,1-2.6-6.268v-18.372a5.067,5.067,0,0,1,5.061-5.062h18.373a8.932,8.932,0,0,1,6.268,2.6l23.828,23.833a7.315,7.315,0,0,1,2.162,5.216,7.315,7.315,0,0,1-2.162,5.216l-16.67,16.675a7.355,7.355,0,0,1-5.221,2.158A7.34,7.34,0,0,1,19124.43-2723.466Zm-23.9-48.473v18.372a6.273,6.273,0,0,0,1.855,4.475l23.832,23.833a4.964,4.964,0,0,0,6.855,0l16.67-16.671a4.81,4.81,0,0,0,1.418-3.427,4.827,4.827,0,0,0-1.418-3.427l-23.832-23.828a6.35,6.35,0,0,0-4.475-1.855h-18.373A2.533,2.533,0,0,0,19100.529-2771.939Zm31.76,38.182-3.576-3.581a1.266,1.266,0,0,1,0-1.793l7.156-7.158a1.263,1.263,0,0,1,1.789,0l3.582,3.581a1.264,1.264,0,0,1,0,1.788,1.263,1.263,0,0,1-1.789,0l-2.687-2.682-1.787,1.788,1.787,1.788a1.266,1.266,0,0,1,0,1.793,1.266,1.266,0,0,1-.895.37,1.264,1.264,0,0,1-.893-.37l-1.789-1.793-1.793,1.793,2.688,2.682a1.277,1.277,0,0,1,0,1.793,1.276,1.276,0,0,1-.895.37A1.279,1.279,0,0,1,19132.289-2733.758Zm-7.158-7.162-3.576-3.576a1.27,1.27,0,0,1,0-1.793l7.158-7.157a1.248,1.248,0,0,1,.895-.375,1.247,1.247,0,0,1,.893.375l3.582,3.576a1.27,1.27,0,0,1,0,1.793,1.268,1.268,0,0,1-1.793,0l-2.682-2.687-1.789,1.793,1.789,1.788a1.264,1.264,0,0,1,0,1.788,1.25,1.25,0,0,1-.895.37,1.25,1.25,0,0,1-.895-.37l-1.793-1.788-1.789,1.788,2.684,2.687a1.264,1.264,0,0,1,0,1.788,1.243,1.243,0,0,1-.895.37A1.249,1.249,0,0,1,19125.131-2740.92Zm-7.162-7.157a1.27,1.27,0,0,1,0-1.793l1.793-1.788a1.277,1.277,0,0,0,0-1.793l-.9-.894-2.682,2.687a1.263,1.263,0,0,1-1.789,0,1.264,1.264,0,0,1,0-1.788l3.543-3.548a.215.215,0,0,1,.033-.033l.033-.034,3.553-3.548a1.263,1.263,0,0,1,1.789,0l1.787,1.788a3.807,3.807,0,0,1,0,5.374,3.8,3.8,0,0,1-2.475,1.106,3.788,3.788,0,0,1-1.1,2.471l-1.793,1.793a1.279,1.279,0,0,1-.9.37A1.276,1.276,0,0,1,19117.969-2748.077Zm2.688-8.056.9.894a1.237,1.237,0,0,0,.889.37h.006a1.257,1.257,0,0,0,.895-.37,1.264,1.264,0,0,0,0-1.788l-.895-.894Zm-13.426-2.687a1.26,1.26,0,0,1,0-1.788l3.58-3.581,3.582-3.576a1.3,1.3,0,0,1,1.789,0l3.58,3.576a1.277,1.277,0,0,1,0,1.793,1.277,1.277,0,0,1-1.793,0l-2.682-2.687-1.793,1.788,1.793,1.793a1.271,1.271,0,0,1,0,1.788,1.256,1.256,0,0,1-.895.37,1.258,1.258,0,0,1-.9-.37l-1.789-1.788-2.682,2.682a1.263,1.263,0,0,1-.9.375A1.261,1.261,0,0,1,19107.23-2758.821Z" transform="translate(-19098 2777)"/></g></svg>