<svg xmlns="http://www.w3.org/2000/svg" xmlns:xlink="http://www.w3.org/1999/xlink" width="56.318" height="56.322" viewBox="0 0 56.318 56.322"><defs><style>.a{fill:#fff;}.b{clip-path:url(#a);}</style><clipPath id="a"><rect class="a" width="56.318" height="56.322"/></clipPath></defs><g class="b"><path class="a" d="M0,36.412v-16.5H3.409v-3.3H0V0H43.007V16.586H39.626V19.9h3.413v.673c0,1.833.007,3.666-.006,5.5,0,.354.081.495.468.561a17.186,17.186,0,0,1,2.562.595A14.9,14.9,0,0,1,44.83,55.891c-.748.168-1.505.289-2.258.432H0V39.712H3.41v-3.3Zm29.781,4.927A11.62,11.62,0,1,0,40.659,29.812,11.58,11.58,0,0,0,29.781,41.339m9.925-38H3.333v9.924H39.706ZM3.319,33.13H23.6c1.65,0,3.3.009,4.95-.011a.83.83,0,0,0,.592-.251A15.016,15.016,0,0,1,39.4,26.606c.122-.019.319-.17.321-.263.023-1.037.015-2.074.015-3.112H3.319Zm.012,19.847H31.964c-.111-.1-.162-.153-.217-.2a14.71,14.71,0,0,1-5.071-9.046c-.095-.6-.287-.714-.848-.712q-10.91.03-21.821.013H3.331ZM21.5,16.593H9.516c-.458,0-.917-.016-1.374.011A1.609,1.609,0,0,0,6.7,18.762a1.711,1.711,0,0,0,1.868,1.131q12.945,0,25.889,0a3.377,3.377,0,0,0,.494-.018,1.644,1.644,0,0,0-.261-3.276c-4.4-.009-8.795,0-13.192,0m5.726,19.852c-.12-.005-.229-.014-.338-.014q-9.2,0-18.406,0a2.54,2.54,0,0,0-.545.047,1.618,1.618,0,0,0-1.181,2.283,1.666,1.666,0,0,0,1.693.973q8.791-.011,17.582,0a.678.678,0,0,0,.271-.008c.112-.055.27-.139.292-.237.221-.995.418-1.995.632-3.039" transform="translate(0 -0.001)"/><path class="a" d="M369.06,320.77v3.288h-8.215v-8.219h3.26v4.931Z" transform="translate(-321.074 -281.027)"/></g></svg>