<svg xmlns="http://www.w3.org/2000/svg" xmlns:xlink="http://www.w3.org/1999/xlink" width="33" height="39.533" viewBox="0 0 33 39.533"><defs><style>.a{fill:#ccc;}.b{clip-path:url(#a);}</style><clipPath id="a"><rect class="a" width="33" height="39.533"/></clipPath></defs><g class="b"><path class="a" d="M31.055,39.533H1.981a9.959,9.959,0,0,1-1.006-.546A2.673,2.673,0,0,1,0,37.192V2.252a1.012,1.012,0,0,0,.07-.164A2.422,2.422,0,0,1,2.686,0c5.384,0,10.767-.008,16.151,0a6.159,6.159,0,0,1,4.42,1.8q4.015,3.939,7.959,7.95a6.04,6.04,0,0,1,1.722,3.815c.088,1.043.058,2.1.059,3.147Q33,26.759,33,36.8a2.478,2.478,0,0,1-.709,1.968,8.1,8.1,0,0,1-1.236.769M16.5,3.336H3.379V36.187H29.657V16.478h-.526q-5.039,0-10.079,0a2.877,2.877,0,0,1-.625-.048A2.473,2.473,0,0,1,16.5,13.842q-.009-4.974,0-9.948Zm13.044,9.8a7.178,7.178,0,0,0-.734-1.1Q24.85,8.039,20.852,4.086a5.778,5.778,0,0,0-1.017-.642v9.692Z" transform="translate(-0.001 0)"/></g></svg>