<svg xmlns="http://www.w3.org/2000/svg" width="18.914" height="24.091" viewBox="0 0 18.914 24.091"><defs><style>.a{fill:#8ab26d;}</style></defs><g transform="translate(1489.395 -585.927)"><path class="a" d="M-1480.008,642.61h-8.106c-.913,0-1.283-.329-1.279-1.136,0-.769.392-1.115,1.257-1.115q8.209,0,16.418,0a1.1,1.1,0,0,1,1.193,1.427.993.993,0,0,1-1.12.823Q-1475.827,642.612-1480.008,642.61Z" transform="translate(-0.001 -48.843)"/><path class="a" d="M-1479.959,744.22c2.771,0,5.541,0,8.311,0a.982.982,0,0,1,.992.5,1.161,1.161,0,0,1-.053,1.307,1.287,1.287,0,0,1-.858.435q-8.388.038-16.776.015c-.7,0-1.061-.423-1.052-1.163a.972.972,0,0,1,1.073-1.083Q-1484.14,744.215-1479.959,744.22Z" transform="translate(0 -142.039)"/><path class="a" d="M-1479.781,694.611h-8.238a1.008,1.008,0,0,1-1.1-.719,1.165,1.165,0,0,1,.414-1.366,1.2,1.2,0,0,1,.62-.162q7.377,0,14.753.021c.682,0,1.364-.017,2.046,0,.632.013.964.421.957,1.13-.006.67-.35,1.074-.961,1.076-2.559.008-5.118,0-7.677,0h-.818Z" transform="translate(-0.191 -95.51)"/><path class="a" d="M-1423.213,589.247c-.786,0-1.573.024-2.357-.016-.215-.011-.549-.171-.6-.333a.842.842,0,0,1,.205-.7c.721-.7,1.491-1.357,2.235-2.037a.642.642,0,0,1,.989,0c.744.68,1.513,1.334,2.234,2.037a.838.838,0,0,1,.2.706c-.05.161-.385.316-.6.327C-1421.673,589.271-1422.444,589.247-1423.213,589.247Z" transform="translate(-56.721)"/><path class="a" d="M-1423.3,788.212c.769,0,1.539-.027,2.306.017a.827.827,0,0,1,.634.354.825.825,0,0,1-.224.7c-.709.691-1.468,1.331-2.2,2a.662.662,0,0,1-1.029,0c-.729-.671-1.487-1.312-2.2-2a.828.828,0,0,1-.23-.7.822.822,0,0,1,.63-.358C-1424.841,788.185-1424.07,788.212-1423.3,788.212Z" transform="translate(-56.657 -181.512)"/></g></svg>