<svg xmlns="http://www.w3.org/2000/svg" xmlns:xlink="http://www.w3.org/1999/xlink" width="21" height="21.025" viewBox="0 0 21 21.025"><defs><style>.a{fill:#fff;}.b{clip-path:url(#a);}</style><clipPath id="a"><rect class="a" width="21" height="21.025"/></clipPath></defs><g class="b"><path class="a" d="M84.505,21.026c-.77-.19-1.546-.36-2.307-.58a11.159,11.159,0,0,1-1.2-.509c.5-.5.952-.969,1.433-1.405.071-.065.292,0,.426.046a6.831,6.831,0,0,0,7.679-1.858,6.659,6.659,0,0,0,1.336-7.181,6.7,6.7,0,0,0-5.743-4.447c-.232-.032-.465-.055-.752-.089V8.049L81.307,3.978,85.328,0V2.97c.828.144,1.624.223,2.386.425a8.968,8.968,0,0,1-.963,17.527c-.215.033-.429.07-.643.1Z" transform="translate(-73.359 -0.001)"/><path class="a" d="M6.33,59.887l6.455,6.272L6.319,72.53,0,66.21l6.33-6.323m3.515,6.352L6.3,62.654,2.769,66.18l3.573,3.566,3.5-3.507" transform="translate(0 -54.242)"/></g></svg>