<svg xmlns="http://www.w3.org/2000/svg" xmlns:xlink="http://www.w3.org/1999/xlink" width="56.631" height="56.617" viewBox="0 0 56.631 56.617"><defs><style>.a{fill:#fff;}.b{clip-path:url(#a);}</style><clipPath id="a"><rect class="a" width="56.631" height="56.617"/></clipPath></defs><g transform="translate(-4.71 -4.709)"><g class="b" transform="translate(4.71 4.709)"><path class="a" d="M28.284,7.267c-.258-.381-.47-.687-.674-1a5.035,5.035,0,0,0-4.464-2.385q-7.107-.008-14.214,0H5.154V43.808h.728c5.631,0,11.263.03,16.894-.015a7.123,7.123,0,0,1,5.436,2.536l-3.9,3.651c-.3-.232-.768-.633-1.272-.987a7.049,7.049,0,0,0-4.2-1.328c-6.026.028-12.052.011-18.079.011H0V3.889H2.515V.016h.828C9.7.016,16.061.047,22.419,0a7.749,7.749,0,0,1,5.715,1.9c1.1-.559,2.1-1.151,3.16-1.572a5.632,5.632,0,0,1,2.019-.3C40.026.009,46.737.017,53.45.018c.182,0,.365.019.612.032V3.858h2.52V28.7a4.323,4.323,0,0,1-.363-.314A15.369,15.369,0,0,0,51.942,25.1a.781.781,0,0,1-.466-.827q.017-9.787.008-19.575V3.882H50.7c-5.548,0-11.1.043-16.645-.021a5.624,5.624,0,0,0-5.4,2.881c-.092.158-.212.3-.373.525" transform="translate(0 0)"/><path class="a" d="M228.2,239.557l-6.933,6.942-3.856-3.861,6.923-6.917a12.208,12.208,0,0,1-1.3-10.219,11.812,11.812,0,0,1,4.562-6.288,12.24,12.24,0,1,1,.607,20.342m13.584-10.352a7.087,7.087,0,1,0-7.059,7.07,7.087,7.087,0,0,0,7.059-7.07" transform="translate(-190.296 -189.882)"/><rect class="a" width="14.112" height="3.788" transform="translate(10.288 12.924)"/><rect class="a" width="14.113" height="3.782" transform="translate(32.196 12.938)"/><rect class="a" width="14.092" height="3.805" transform="translate(10.294 30.957)"/><rect class="a" width="14.046" height="3.772" transform="translate(10.352 21.949)"/><path class="a" d="M272.325,176.027v1.3c-.224,0-.424.012-.623,0a16.028,16.028,0,0,0-9.653,2.3,1.124,1.124,0,0,1-.507.207c-1.1.019-2.194.01-3.329.01v-3.815Z" transform="translate(-226.014 -154.076)"/></g></g></svg>