<svg xmlns="http://www.w3.org/2000/svg" xmlns:xlink="http://www.w3.org/1999/xlink" width="61.127" height="61.127" viewBox="0 0 61.127 61.127"><defs><style>.a{fill:#fff;}.b{clip-path:url(#a);}</style><clipPath id="a"><rect class="a" width="61.127" height="61.127"/></clipPath></defs><g class="b"><path class="a" d="M0,25.66a4.255,4.255,0,0,1,3.867-2.526,20.814,20.814,0,0,0,2.611-.408c3.292-.564,3.648-1.372,1.887-4.262-.071-.117-.136-.236-.207-.351-3.3-5.388-3.294-5.41,1.289-9.642.349-.322.719-.622,1.06-.95,3.73-3.587,3.971-3.6,8.175-.44,1.008.758,2.029,1.5,3.472,2.566.419-2.387.763-4.273,1.077-6.164C23.656.926,24.7.027,27.358.009q2.956-.02,5.911,0c2.714.013,3.644.746,4.26,3.355.446,1.891.879,3.785,1.428,6.155l4.769-3.181c2.8-1.869,3.8-1.79,6.218.494,1.431,1.353,2.887,2.68,4.282,4.069,1.556,1.548,1.679,2.862.5,4.727-.726,1.146-1.511,2.255-2.257,3.389-1.318,2-.891,3.1,1.4,3.549,1.331.259,2.678.44,4.014.673,2.207.385,3.2,1.5,3.23,3.731s-.006,4.484.011,6.726a3.434,3.434,0,0,1-2.993,3.753c-1.393.3-2.791.577-4.178.9-1.93.459-2.509,1.946-1.409,3.607.787,1.188,1.638,2.334,2.407,3.534a3.286,3.286,0,0,1-.473,4.447c-1.674,1.685-3.423,3.3-5.147,4.932a3.377,3.377,0,0,1-4.466.431c-1.215-.744-2.368-1.589-3.57-2.355-1.574-1-2.513-.64-2.95,1.136a28.2,28.2,0,0,0-.727,3.381,4.523,4.523,0,0,1-2.559,3.663H25.683a4.337,4.337,0,0,1-2.52-3.876,25.52,25.52,0,0,0-.578-3.407C22.3,52.272,21.468,52.13,20.291,53c-1.147.846-2.26,1.74-3.419,2.569a3.3,3.3,0,0,1-4.459-.2c-1.026-.888-2-1.837-2.993-2.759-4.4-4.069-4.407-4.136-1.259-9.333a4.672,4.672,0,0,0,.7-1.23A5.29,5.29,0,0,0,9,40.006c-.387-2.155-2.379-1.679-3.753-2.051-2.022-.548-4.22-.636-5.249-2.919ZM26.947,3.785c-.328,2.019-.6,3.959-.966,5.884a4.2,4.2,0,0,1-6.543,2.617c-1.307-.971-2.573-2-3.936-2.89A1.619,1.619,0,0,0,14,9.4c-1.484,1.263-2.862,2.652-4.331,4.048,1.139,1.86,2.223,3.572,3.247,5.319,1.376,2.347-.669,6.727-3.341,7.2-1.917.335-3.84.642-5.8.968V33.72a16.457,16.457,0,0,0,2.946.712c3.39.19,5.607,1.753,6.192,5.172a5.872,5.872,0,0,1-.219,3.178A48.8,48.8,0,0,1,9.786,47.8l4.992,4.7c1.434-1.089,2.773-2.109,4.116-3.125A4.687,4.687,0,0,1,26.089,52.2c.278,1.715.6,3.423.9,5.152h6.8c.392-1.693.875-3.319,1.124-4.981s1.158-2.418,2.653-3.182a4.764,4.764,0,0,1,5.9.708,36.777,36.777,0,0,0,3.289,2.242l4.992-4.713a58.2,58.2,0,0,1-3.3-4.978,4.843,4.843,0,0,1-.233-2.784,19.407,19.407,0,0,1,.949-2.449,2.953,2.953,0,0,1,2.63-2.18c1.858-.34,3.691-.813,5.527-1.228V26.946a25.184,25.184,0,0,0-3.315-.515c-3.141-.071-5.133-1.412-6.031-4.558a3.505,3.505,0,0,1,.361-3.4c1.133-1.575,2.161-3.227,3.274-4.907-.924-.882-1.7-1.629-2.486-2.369-.823-.775-1.653-1.542-2.5-2.329-1.775,1.21-3.4,2.31-5.021,3.423a4.222,4.222,0,0,1-6.489-2.505c-.438-2.025-.895-4.046-1.328-6Z" transform="translate(0 0)"/><path class="a" d="M58.836,70.318a11.141,11.141,0,1,1,.188-22.281A11.287,11.287,0,0,1,70.111,59.3,11.156,11.156,0,0,1,58.836,70.318m.085-3.678a7.5,7.5,0,0,0,7.439-7.374,7.443,7.443,0,0,0-14.886-.011,7.57,7.57,0,0,0,7.446,7.386" transform="translate(-28.159 -28.323)"/></g></svg>