<svg xmlns="http://www.w3.org/2000/svg" width="10" height="11.042" viewBox="0 0 10 11.042"><defs><style>.a{fill:#8ab26d;}</style></defs><path class="a" d="M12.829,10.917a1.518,1.518,0,0,0-1.086.416l-3.983-2.3a1.866,1.866,0,0,0,.056-.389,1.865,1.865,0,0,0-.056-.389l3.928-2.275a1.667,1.667,0,1,0-.529-1.221,1.854,1.854,0,0,0,.056.389L7.286,7.422a1.677,1.677,0,0,0-1.142-.444A1.649,1.649,0,0,0,4.5,8.642,1.677,1.677,0,0,0,7.313,9.863l3.955,2.3a1.392,1.392,0,0,0-.056.361,1.616,1.616,0,1,0,1.616-1.609Z" transform="translate(-4.5 -3.094)"/></svg>