<svg xmlns="http://www.w3.org/2000/svg" xmlns:xlink="http://www.w3.org/1999/xlink" width="55.152" height="54.702" viewBox="0 0 55.152 54.702"><defs><style>.a{fill:#fff;}.b{clip-path:url(#a);}</style><clipPath id="a"><rect class="a" width="55.152" height="54.702"/></clipPath></defs><g class="b"><path class="a" d="M55.151,28.762c-.074.653-.144,1.306-.223,1.958A27.081,27.081,0,0,1,50.507,42.5a2.178,2.178,0,0,1-1.747,1.076A2.022,2.022,0,0,1,46.8,42.54a2.083,2.083,0,0,1-.012-2.223c.682-1.218,1.45-2.4,2.031-3.662a21.275,21.275,0,0,0,1.819-12.079c-1.185-8.332-5.7-14.293-13.152-18.058A21.581,21.581,0,0,0,29.269,4.36,23.23,23.23,0,0,0,6.186,18.29,22.071,22.071,0,0,0,7.263,38.4a3.38,3.38,0,0,1,.373,2.54c-.635,2.708-1.208,5.43-1.8,8.147-.023.1-.035.212-.064.387.373-.078.719-.145,1.062-.224q3.948-.906,7.895-1.818a2.676,2.676,0,0,1,1.911.233,23,23,0,0,0,20.093.843c.966-.4,1.876-.929,2.805-1.412a2.183,2.183,0,0,1,2.484.249,2.127,2.127,0,0,1,.609,2.348,2.185,2.185,0,0,1-.972,1.145,27.694,27.694,0,0,1-10.48,3.619,27.067,27.067,0,0,1-6.12.128,26.721,26.721,0,0,1-9.387-2.6,1.446,1.446,0,0,0-1.036-.116Q9.1,53.15,3.554,54.406A2.161,2.161,0,0,1,.845,51.7q1.228-5.55,2.437-11.1a1.1,1.1,0,0,0-.12-.677A26.754,26.754,0,0,1,.034,26,26.469,26.469,0,0,1,5.893,10.494,27.551,27.551,0,0,1,31.072.228,26.527,26.527,0,0,1,43.781,5.275,27.153,27.153,0,0,1,54.488,21.559c.3,1.358.4,2.764.592,4.147.018.131.047.261.071.391Z" transform="translate(0.001 0)"/><path class="a" d="M185.281,194.751a6.97,6.97,0,0,1,2.421-5.3,2.28,2.28,0,0,1,2.093-.517,1.47,1.47,0,0,1,1.893.846c.527,1.22,1.028,2.452,1.54,3.679.176.421.347.844.529,1.263a1.334,1.334,0,0,1-.02,1.125,6.3,6.3,0,0,1-1.5,1.928c-.606.6-.634.845-.19,1.582a17.116,17.116,0,0,0,7.313,6.791c.447.216.9.412,1.363.6a.857.857,0,0,0,1.175-.286q1.012-1.231,2.008-2.475a.861.861,0,0,1,1.188-.359c.711.28,1.407.6,2.1.935,1.052.508,2.089,1.048,3.141,1.557a.936.936,0,0,1,.586.956,4.96,4.96,0,0,1-2.369,4.434,7.272,7.272,0,0,1-5.893.75,23.029,23.029,0,0,1-13.367-8.859,24.746,24.746,0,0,1-3.192-4.977,9.01,9.01,0,0,1-.815-3.676" transform="translate(-170.301 -173.596)"/></g></svg>