<svg xmlns="http://www.w3.org/2000/svg" width="22.25" height="22.25" viewBox="0 0 22.25 22.25"><defs><style>.a{fill:#fff;}</style></defs><path class="a" d="M13.577,2.25A10.881,10.881,0,0,0,2.654,13.089a10.727,10.727,0,0,0,1.567,5.6L2.25,24.5,8.3,22.579a10.941,10.941,0,0,0,16.2-9.49A10.881,10.881,0,0,0,13.577,2.25ZM19.008,17.2a2.821,2.821,0,0,1-1.932,1.245c-.512.027-.527.4-3.32-.816a11.4,11.4,0,0,1-4.6-4.354,5.357,5.357,0,0,1-1.031-2.9A3.1,3.1,0,0,1,9.184,8.105a1.07,1.07,0,0,1,.757-.319c.22,0,.362-.007.525,0s.407-.034.618.528.717,1.945.782,2.085a.506.506,0,0,1,.005.485,1.9,1.9,0,0,1-.3.451c-.146.156-.307.35-.437.469s-.3.277-.144.56a8.358,8.358,0,0,0,1.479,1.973,7.621,7.621,0,0,0,2.19,1.456c.274.149.437.133.607-.046s.727-.782.924-1.051.38-.217.633-.116,1.6.822,1.871.971.457.225.522.343A2.294,2.294,0,0,1,19.008,17.2Z" transform="translate(-2.25 -2.25)"/></svg>